HIERARCHY
ROOT Hips
{
	OFFSET 0.00000 0.00000 0.00000
	CHANNELS 6 Xposition Yposition Zposition Zrotation Yrotation Xrotation 
	JOINT LHipJoint
	{
		OFFSET 0 0 0
		CHANNELS 3 Zrotation Yrotation Xrotation
		JOINT LeftUpLeg
		{
			OFFSET 1.23340 -1.80723 0.69510
			CHANNELS 3 Zrotation Yrotation Xrotation
			JOINT LeftLeg
			{
				OFFSET 2.50056 -6.87023 0.00000
				CHANNELS 3 Zrotation Yrotation Xrotation
				JOINT LeftFoot
				{
					OFFSET 2.85931 -7.85591 0.00000
					CHANNELS 3 Zrotation Yrotation Xrotation
					JOINT LeftToeBase
					{
						OFFSET 0.21001 -0.57700 2.07823
						CHANNELS 3 Zrotation Yrotation Xrotation
						End Site
						{
							OFFSET 0.00000 -0.00000 1.08338
						}
					}
				}
			}
		}
	}
	JOINT RHipJoint
	{
		OFFSET 0 0 0
		CHANNELS 3 Zrotation Yrotation Xrotation
		JOINT RightUpLeg
		{
			OFFSET -1.40842 -1.80723 0.69510
			CHANNELS 3 Zrotation Yrotation Xrotation
			JOINT RightLeg
			{
				OFFSET -2.54876 -7.00266 0.00000
				CHANNELS 3 Zrotation Yrotation Xrotation
				JOINT RightFoot
				{
					OFFSET -2.74835 -7.55104 0.00000
					CHANNELS 3 Zrotation Yrotation Xrotation
					JOINT RightToeBase
					{
						OFFSET -0.22633 -0.62184 2.00890
						CHANNELS 3 Zrotation Yrotation Xrotation
						End Site
						{
							OFFSET -0.00000 -0.00000 1.05493
						}
					}
				}
			}
		}
	}
	JOINT LowerBack
	{
		OFFSET 0 0 0
		CHANNELS 3 Zrotation Yrotation Xrotation
		JOINT Spine
		{
			OFFSET -0.02340 2.02740 -0.12728
			CHANNELS 3 Zrotation Yrotation Xrotation
			JOINT Spine1
			{
				OFFSET -0.00862 2.03614 -0.01188
				CHANNELS 3 Zrotation Yrotation Xrotation
				JOINT Neck
				{
					OFFSET 0 0 0
					CHANNELS 3 Zrotation Yrotation Xrotation
					JOINT Neck1
					{
						OFFSET 0.03380 1.76650 0.27670
						CHANNELS 3 Zrotation Yrotation Xrotation
						JOINT Head
						{
							OFFSET -0.01114 1.80516 -0.21451
							CHANNELS 3 Zrotation Yrotation Xrotation
							End Site
							{
								OFFSET -0.00766 1.81942 -0.10287
							}
						}
					}
				}
				JOINT LeftShoulder
				{
					OFFSET 0 0 0
					CHANNELS 3 Zrotation Yrotation Xrotation
					JOINT LeftArm
					{
						OFFSET 3.22358 1.39475 0.18630
						CHANNELS 3 Zrotation Yrotation Xrotation
						JOINT LeftForeArm
						{
							OFFSET 5.45077 -0.00000 0.00000
							CHANNELS 3 Zrotation Yrotation Xrotation
							JOINT LeftHand
							{
								OFFSET 3.05488 -0.00000 0.00000
								CHANNELS 3 Zrotation Yrotation Xrotation
								JOINT LeftFingerBase
								{
									OFFSET 0 0 0
									CHANNELS 3 Zrotation Yrotation Xrotation
									JOINT LeftHandIndex1
									{
										OFFSET 0.63882 -0.00000 0.00000
										CHANNELS 3 Zrotation Yrotation Xrotation
										End Site
										{
											OFFSET 0.51503 -0.00000 0.00000
										}
									}
								}
								JOINT LThumb
								{
									OFFSET 0 0 0
									CHANNELS 3 Zrotation Yrotation Xrotation
									End Site
									{
										OFFSET 0.52290 -0.00000 0.52290
									}
								}
							}
						}
					}
				}
				JOINT RightShoulder
				{
					OFFSET 0 0 0
					CHANNELS 3 Zrotation Yrotation Xrotation
					JOINT RightArm
					{
						OFFSET -3.57143 1.14055 0.30691
						CHANNELS 3 Zrotation Yrotation Xrotation
						JOINT RightForeArm
						{
							OFFSET -4.88702 -0.00000 -0.00000
							CHANNELS 3 Zrotation Yrotation Xrotation
							JOINT RightHand
							{
								OFFSET -3.22603 -0.00000 0.00000
								CHANNELS 3 Zrotation Yrotation Xrotation
								JOINT RightFingerBase
								{
									OFFSET 0 0 0
									CHANNELS 3 Zrotation Yrotation Xrotation
									JOINT RightHandIndex1
									{
										OFFSET -0.71629 -0.00000 0.00000
										CHANNELS 3 Zrotation Yrotation Xrotation
										End Site
										{
											OFFSET -0.57749 -0.00000 0.00000
										}
									}
								}
								JOINT RThumb
								{
									OFFSET 0 0 0
									CHANNELS 3 Zrotation Yrotation Xrotation
									End Site
									{
										OFFSET -0.58631 -0.00000 0.58631
									}
								}
							}
						}
					}
				}
			}
		}
	}
}
MOTION
Frames: 6
Frame Time: .0083333
-6.582200 18.190500 -15.371800 2.948500 -8.293300 10.917500 0.000000 0.000000 0.000000 -24.315400 5.363100 -21.281200 2.688700 10.173200 29.539500 1.520400 -4.486600 -22.285200 1.172800 -6.874100 -19.342800 0.000000 0.000000 0.000000 19.733400 -13.411400 -25.679100 -4.729700 -13.072800 39.641500 -2.313900 -7.444600 -32.142100 -0.040000 1.291700 -3.551700 -3.986000 -1.498800 -10.006100 -0.670100 -1.566300 -2.456000 1.349100 -0.805200 3.137500 -1.431600 -6.106500 -16.442200 0.461600 -8.266900 20.945900 -0.669900 -3.926200 9.393700 0.000000 0.000000 0.000000 -79.512000 10.190300 40.767300 18.912900 -29.310400 -4.988200 -0.000000 0.000000 -12.757700 9.954700 25.316100 4.292100 -7.125000 0.000000 -0.000000 -20.751800 54.408200 -4.958900 0.000000 0.000000 0.000000 77.279400 -1.531400 37.501200 -17.705600 27.778600 -4.411200 0.000000 -0.000000 -0.391800 -20.920200 9.310500 -3.539000 7.125000 -0.000000 -0.000000 4.309500 -20.038800 2.579200
-6.543300 18.182300 -15.359600 3.161600 -7.606000 10.671800 0.000000 0.000000 0.000000 -24.461100 5.196200 -20.869000 2.672000 10.144100 29.444500 1.472500 -4.529700 -21.911300 1.722800 -8.263200 -23.516300 0.000000 0.000000 0.000000 19.194400 -13.473600 -25.300700 -4.773500 -13.124000 39.834600 -2.289800 -7.371900 -31.958700 -0.041000 1.307000 -3.594000 -4.037100 -1.343800 -9.776800 -0.887700 -1.358300 -2.433400 1.183000 -0.700000 3.019000 -1.296900 -6.043400 -16.496800 0.438500 -8.213800 21.129900 -0.698200 -3.889900 9.460400 0.000000 0.000000 0.000000 -79.355200 10.185500 41.110400 18.914200 -29.311900 -4.988800 -0.000000 0.000000 -12.601500 9.533900 26.331000 4.260400 -7.125000 0.000000 -0.000000 -21.778300 55.271800 -5.689500 0.000000 0.000000 0.000000 77.555400 -1.674500 37.623200 -18.002200 28.160000 -4.550300 0.000000 -0.000000 -0.427800 -20.960400 9.340500 -3.557700 7.125000 -0.000000 -0.000000 4.281200 -20.004200 2.565400
-6.500400 18.172200 -15.352400 3.491100 -6.930500 10.951600 0.000000 0.000000 0.000000 -24.845000 5.013600 -21.150400 2.667900 10.137100 29.421700 1.454100 -5.375000 -21.674800 1.714800 -8.245000 -23.460700 0.000000 0.000000 0.000000 18.615500 -13.406300 -25.544700 -4.823400 -13.182100 40.054100 -2.253700 -7.159200 -31.623900 -0.028700 1.093700 -3.006600 -4.219400 -1.309200 -10.028000 -0.956500 -1.282900 -2.596900 1.220500 -0.660800 2.985800 -1.550100 -5.940300 -16.483800 0.424000 -8.003200 21.298500 -0.638600 -3.811000 9.526300 0.000000 -0.000000 0.000000 -79.524100 10.220300 41.167900 18.847900 -29.229200 -4.956400 -0.000000 0.000000 -12.385900 9.407100 26.476200 4.224300 -7.125000 0.000000 -0.000000 -21.994400 55.381500 -5.809900 0.000000 -0.000000 0.000000 77.388300 -1.797000 38.257700 -18.315800 28.559600 -4.699200 0.000000 -0.000000 -0.733400 -21.071200 9.241800 -3.540900 7.125000 -0.000000 -0.000000 4.200200 -20.101500 2.507500
-6.464000 18.164700 -15.352100 3.195900 -6.202900 11.312200 0.000000 0.000000 0.000000 -24.523600 4.827600 -21.498900 2.672400 10.144800 29.446900 1.433800 -6.202200 -21.456600 1.676300 -8.156600 -23.190600 0.000000 0.000000 0.000000 18.763000 -13.055000 -25.720300 -4.874500 -13.241100 40.277800 -2.218500 -7.195000 -31.432700 -0.021300 0.941500 -2.587900 -3.838700 -1.241800 -10.253900 -0.869100 -1.227400 -2.734400 1.102200 -0.629100 2.959000 -1.646900 -5.794000 -16.453500 0.326700 -7.749500 21.354400 -0.623000 -3.711100 9.537800 -0.000000 -0.000000 0.000000 -79.571400 10.223000 41.292600 18.802400 -29.172400 -4.934100 -0.000000 0.000000 -12.165900 8.765200 26.459700 3.930100 -7.125000 0.000000 -0.000000 -22.615600 55.242000 -5.908100 -0.000000 -0.000000 0.000000 77.293500 -1.842100 38.963900 -18.663400 28.998200 -4.866600 0.000000 -0.000000 -1.160600 -21.020700 9.143400 -3.494400 7.125000 -0.000000 -0.000000 4.234900 -20.209700 2.518000
-6.431900 18.156300 -15.347900 3.018500 -5.466600 11.299400 0.000000 0.000000 0.000000 -24.293700 4.759300 -21.518000 2.694600 10.183500 29.573000 1.437200 -6.846900 -21.455000 1.750400 -8.325700 -23.707700 0.000000 0.000000 0.000000 18.695500 -12.695300 -25.396500 -4.922800 -13.296300 40.488100 -2.207500 -7.134900 -31.332100 -0.013600 0.751900 -2.066500 -3.605200 -1.176700 -10.210600 -0.879600 -1.165800 -2.718200 0.968800 -0.597200 2.944800 -1.409500 -5.598500 -16.602700 0.095500 -7.483900 21.495800 -0.712700 -3.591500 9.592300 0.000000 0.000000 0.000000 -79.477400 10.124500 41.452100 18.722900 -29.073000 -4.895500 -0.000000 0.000000 -11.956700 8.145900 26.368000 3.637600 -7.125000 0.000000 -0.000000 -23.163800 55.038900 -5.945800 0.000000 0.000000 0.000000 77.404700 -1.776600 39.305800 -18.991900 29.408600 -5.026900 0.000000 -0.000000 -1.094700 -20.555200 9.123800 -3.402800 7.125000 -0.000000 -0.000000 4.568500 -20.262000 2.712200
-6.400100 18.143200 -15.342600 3.247300 -4.706500 11.177900 0.000000 0.000000 0.000000 -24.521100 4.873200 -21.537600 2.725600 10.236900 29.747500 1.449900 -7.686000 -21.540500 1.841300 -8.527400 -24.327800 0.000000 0.000000 0.000000 18.157700 -12.527300 -24.995300 -4.971800 -13.352000 40.700900 -2.201200 -6.950900 -31.190300 -0.008600 0.599100 -1.646200 -3.790600 -1.206100 -10.133100 -0.973100 -1.183700 -2.659800 0.974300 -0.607400 2.965000 -1.099800 -5.359800 -16.942700 -0.241900 -7.153100 21.775300 -0.851100 -3.445100 9.724800 0.000000 0.000000 0.000000 -79.474700 10.041500 41.578500 18.694400 -29.037200 -4.881600 -0.000000 0.000000 -12.139100 8.214700 26.524800 3.688800 -7.125000 0.000000 -0.000000 -23.196900 55.195600 -6.045500 0.000000 0.000000 0.000000 77.487900 -1.620600 39.634700 -19.287500 29.774400 -5.172800 0.000000 -0.000000 -0.904100 -20.095500 9.169200 -3.336500 7.125000 -0.000000 -0.000000 4.898700 -20.244500 2.911600
